<svg width="500" height="500" viewBox="0 0 500 500" fill="none" xmlns="http://www.w3.org/2000/svg">
<path d="M98.5156 146.177C100.922 145.979 102.698 146.047 104.917 147.063C107.401 148.406 109.339 150.255 111.411 152.156C112.927 153.495 114.25 154.349 116.172 155.005C118.5 155.307 119.99 155.344 122.172 154.505C125.266 152.911 127.724 150.807 130.214 148.396C131.599 147.25 132.698 146.703 134.417 146.177C137.417 145.781 140.281 145.698 143.115 146.839C144.385 147.547 145.589 148.281 146.776 149.12V150.297L147.771 150.74C149.13 151.474 149.13 151.474 150.568 152.651C152.083 153.833 153.172 154.479 155.016 155.005C156.922 155.219 158.469 155.224 160.302 154.62C162.573 153.599 164.198 152.396 165.906 150.589C167.573 148.849 169.109 147.552 171.323 146.568C174.141 145.755 176.849 145.745 179.74 146.177C183.286 147.422 185.635 149.62 188.161 152.313C189.682 153.729 191.333 154.333 193.276 155.005L194.932 155.63C196.932 156.219 198.521 156.307 200.604 156.276L202.823 156.255L203.995 156.234C206.057 156.203 208.12 156.198 210.182 156.193L211.443 156.188C260.911 156.005 313.896 169.276 356.901 193.833L358.87 194.922C363.745 197.625 368.391 200.609 372.99 203.755C373.844 204.339 374.703 204.911 375.563 205.484C387.38 213.474 397.281 223.63 403.984 236.266C405.958 240.427 407.115 244.656 408.104 249.135L408.448 250.578C409.771 258.635 408.37 266.76 405.521 274.333C403.802 278.516 401.745 282.406 399.276 286.203L400.589 286.698C402.031 287.297 403.422 288 404.76 288.813C405.167 289.052 405.578 289.297 406 289.547L406.927 290.318V292.083C404.896 291.714 403.568 290.911 401.891 289.729C400.38 288.672 399.276 287.964 397.51 287.38L397.068 288.37C393.339 295.307 386.208 301.599 380.161 306.5C379.198 307.344 379.198 307.344 378.745 308.573L378.089 309.734C376.74 310.531 376.74 310.531 375.036 311.281C371.964 312.734 369.146 314.391 366.318 316.281L365.188 317.026C362.25 318.974 362.25 318.974 359.844 321.5C359.276 323.203 358.948 324.927 358.63 326.688C357.984 330.089 357.203 333.068 355.724 336.208L357.417 336.172C359.255 336.208 359.255 336.208 360.432 336.797L359.844 338.563L358.849 338.292C357.182 338.036 356.156 338.036 354.547 338.563C353.411 339.969 352.557 341.411 351.693 342.99C347.906 349.839 342.042 354.708 335.708 359.156L334.531 359.745L333.943 361.505C332.76 361.922 331.563 362.313 330.365 362.677C327.573 363.646 324.964 364.974 322.313 366.266C316.375 369.021 310.323 370.969 303.964 372.464L301.714 373C295.849 374.354 289.984 375.391 284 376.021C282.568 376.172 281.141 376.339 279.714 376.516C271.255 377.505 262.849 377.604 254.339 377.578L252.146 377.573C236.932 377.542 222.104 376.693 207.177 373.589C205.604 373.271 204.026 372.974 202.448 372.698C185.891 369.63 169.812 364.167 154.427 357.391L152.995 356.771C143.12 352.505 133.443 347.016 125 340.328L123.453 339.12C121.995 337.969 120.552 336.802 119.115 335.62L117.974 334.708C111.052 329.005 105.437 320.943 102.047 312.677C99.6927 305.677 99.276 298.661 100.406 291.385C102.547 280.943 107.505 271.74 113.818 263.255L115.026 261.604C117.052 258.911 117.052 258.911 117.937 257.964H119.115L119.505 256.969C120.542 255.177 121.865 254.068 123.417 252.703C125.589 250.786 127.682 248.844 129.708 246.781L128.802 245.422C124.583 238.859 121.672 231.99 119.703 224.427L119.203 222.797C116.797 213.766 116.786 203.151 119.187 194.125C121.281 187.042 124.74 181.573 130.01 176.417C134.776 171.953 140.214 168.74 146.187 166.182H147.365C146.437 164.156 145.328 162.865 143.542 161.583C141.536 160.417 139.896 160.057 137.578 159.969C135.547 160.078 134.437 160.286 132.578 161.182C131.599 162.031 130.635 162.896 129.703 163.792C127.016 166.339 124.807 168.052 121.167 168.927C118.828 169.24 116.677 169.172 114.406 168.536C111.823 167.427 110.089 166.146 108.115 164.161C105.193 161.427 102.344 160.161 98.5156 159.12V156.771C100.495 156.604 102 156.531 103.875 157.229C105.937 158.25 107.99 159.323 109.698 160.885V162.063L110.74 162.573C112.052 163.24 112.052 163.24 113.104 163.891C114.771 164.87 116.24 165.526 118.167 165.781C119.812 165.734 121.083 165.536 122.646 165.005C124.797 163.625 126.641 162.01 128.531 160.297C130.422 158.672 132.021 157.505 134.417 156.771C136.818 156.417 139.073 156.427 141.479 156.771C144.026 157.813 146.38 159.198 148.229 161.26C149.276 162.359 150.135 163.13 151.484 163.828C153.771 163.797 155.771 163.125 157.922 162.396L159.62 161.88C165.391 160.167 165.391 160.167 170.76 157.542C173.693 156.359 176.615 156.542 179.74 156.771L180.937 157.104C182.484 157.443 183.646 157.151 185.182 156.807C185.969 156.635 185.969 156.635 186.771 156.458L187.979 156.182C183.922 152.417 183.922 152.417 179.151 149.708C177.125 149.391 175.286 149.391 173.266 149.708C170.495 150.875 168.75 152.406 166.568 154.453C164.464 156.359 162.667 157.599 159.911 158.333C157.391 158.703 155.13 158.594 152.661 157.943C149.443 156.516 146.896 154.177 144.339 151.797C143.203 150.849 142.271 150.245 140.891 149.708C138.708 149.427 136.604 149.458 134.417 149.708C132.495 150.63 131.219 151.745 129.682 153.203C127.167 155.557 125.031 157.427 121.661 158.339C119.187 158.693 116.828 158.552 114.406 157.943C111.781 156.828 109.917 155.453 107.859 153.495C105.781 151.526 104.125 150.151 101.375 149.339L100.13 149.047L97.9271 148.531L98.5156 146.177ZM115.693 294.182C114.26 295.568 114.26 295.568 113.818 297.635C113.677 299.714 113.677 299.714 114.552 301.385C115.573 302.797 115.573 302.797 117.349 303.849C119.062 304.146 119.062 304.146 120.88 303.849C122.469 302.792 123.552 302.036 124.411 300.323C124.656 298.63 124.656 298.63 124.411 296.792C123.354 295.203 122.594 294.12 120.88 293.26C118.719 293.021 117.609 293.115 115.693 294.182ZM115.693 314.771C114.26 316.161 114.26 316.161 113.818 318.229C113.682 320.302 113.682 320.302 114.516 321.979C115.5 323.26 115.5 323.26 116.615 324.073C118.036 324.536 118.036 324.536 119.995 324.406C122.104 324.01 122.104 324.01 123.49 322.568C124.505 320.964 124.505 320.964 124.703 319.146C124.521 317.302 124.521 317.302 123.307 315.729C122.172 314.417 122.172 314.417 120.88 313.854C118.719 313.615 117.609 313.708 115.693 314.771Z" fill="#FFB027"/>
<path d="M129.708 247.37H130.885C131.641 248.24 132.365 249.135 133.057 250.057C136.604 254.568 140.047 257.703 144.88 260.828C146.88 262.151 148.823 263.521 150.75 264.948L152.542 266.266L153.839 267.375V268.552L154.813 268.932C156.693 270.016 158.052 271.49 159.505 273.073L160.438 274.089C168.016 282.547 173.193 292.641 175.76 303.698C176.099 305.151 176.458 306.604 176.833 308.047L177.167 309.318C177.38 310.141 177.594 310.964 177.813 311.781C178.354 313.891 178.682 315.792 178.563 317.969H179.74L179.958 319.12C181.391 325.38 184.646 330.432 188.823 335.255C195.135 341.896 202.807 345.828 211.5 348.479C230.229 353.802 250.552 354.354 269.792 351.505L271.12 351.313C278.177 350.276 285.177 348.849 292.156 347.385L293.62 347.083C295.036 346.781 296.448 346.479 297.859 346.172L299.115 345.906C301.672 345.344 304.13 344.615 306.604 343.766C308.203 343.219 309.802 342.693 311.406 342.172C320.443 339.214 320.443 339.214 329.234 335.62C330.125 335.24 331.01 334.854 331.901 334.474C338.297 331.688 344.401 328.568 350.453 325.099C352.089 324.167 353.74 323.25 355.391 322.349L356.859 321.536C358.078 320.911 358.078 320.911 359.844 320.323C358.927 325.839 357.891 331.021 355.724 336.208L357.417 336.172C359.255 336.208 359.255 336.208 360.432 336.797L359.844 338.563L358.849 338.292C357.182 338.036 356.156 338.036 354.547 338.563C353.411 339.969 352.557 341.411 351.693 342.99C347.906 349.839 342.042 354.708 335.708 359.156L334.531 359.745L333.943 361.505C332.76 361.922 331.563 362.313 330.365 362.677C327.573 363.646 324.964 364.974 322.313 366.266C316.375 369.021 310.323 370.969 303.964 372.464L301.714 373C295.849 374.354 289.984 375.391 284 376.021C282.568 376.172 281.141 376.339 279.714 376.516C271.255 377.505 262.849 377.604 254.339 377.578L252.146 377.573C236.932 377.542 222.104 376.693 207.177 373.589C205.604 373.271 204.026 372.974 202.448 372.698C185.891 369.63 169.813 364.167 154.427 357.391L152.995 356.771C143.12 352.505 133.443 347.016 125 340.328L123.453 339.12C121.995 337.969 120.552 336.802 119.115 335.62L117.974 334.708C111.052 329.005 105.438 320.943 102.047 312.677C99.6927 305.677 99.276 298.661 100.406 291.385C102.547 280.943 107.505 271.74 113.818 263.255L115.026 261.604C117.052 258.911 117.052 258.911 117.938 257.964H119.115L119.505 256.969C120.542 255.172 121.87 254.042 123.417 252.667L125.104 251.161C128.156 248.526 128.156 248.526 129.708 247.37ZM115.693 294.182C114.26 295.568 114.26 295.568 113.818 297.635C113.677 299.714 113.677 299.714 114.552 301.385C115.573 302.797 115.573 302.797 117.349 303.849C119.063 304.146 119.063 304.146 120.88 303.849C122.469 302.792 123.552 302.036 124.411 300.323C124.656 298.63 124.656 298.63 124.411 296.792C123.354 295.203 122.594 294.12 120.88 293.26C118.719 293.021 117.609 293.115 115.693 294.182ZM115.693 314.771C114.26 316.161 114.26 316.161 113.818 318.229C113.682 320.302 113.682 320.302 114.516 321.979C115.5 323.26 115.5 323.26 116.615 324.073C118.036 324.536 118.036 324.536 119.995 324.406C122.104 324.01 122.104 324.01 123.49 322.568C124.505 320.964 124.505 320.964 124.703 319.146C124.521 317.302 124.521 317.302 123.307 315.729C122.172 314.417 122.172 314.417 120.88 313.854C118.719 313.615 117.609 313.708 115.693 314.771Z" fill="#EE873D"/>
<path d="M346.781 144.818L348.01 144.823C354.641 144.849 361.016 145.313 367.495 146.766L369.76 147.245C378.703 149.359 387.036 153.052 393.979 159.12C394.49 159.568 395.005 160.016 395.531 160.474C401.266 165.839 405.177 172.469 408.104 179.714L408.63 180.932C411.234 187.26 411.557 194.135 411.047 200.891C410.349 205.646 408.411 209.854 405.75 213.839C403.625 216.484 401.526 219.005 398.687 220.896C397.281 221.12 397.281 221.12 395.745 220.896C394.339 219.88 394.339 219.88 392.911 218.505L391.354 217.031L389.859 215.599C386.87 212.911 383.786 210.339 380.693 207.771C379.016 206.385 377.365 204.974 375.734 203.542C374.948 202.854 374.167 202.167 373.38 201.479L371.833 200.13C360.302 190.26 346.812 182.984 332.604 177.74C328.37 176.167 325.109 174.365 322.172 170.891C320.875 168.88 320.469 167.385 320.229 165.021C320.078 161.24 320.38 157.99 321.99 154.542C323.312 152.307 324.771 150.646 326.88 149.12C333.427 145.448 339.396 144.776 346.781 144.818Z" fill="#F4D6C9"/>
<mask id="mask0_1_2" style="mask-type:luminance" maskUnits="userSpaceOnUse" x="21" y="63" width="91" height="253">
<path d="M21.6042 63.4844H112V316H21.6042V63.4844Z" fill="white"/>
</mask>
<g mask="url(#mask0_1_2)">
<path d="M97.3385 217.953C99.9219 219.057 102.036 220.667 103.849 222.807C107.802 228.531 110.307 235.771 110.875 242.667L110.995 243.896C111.625 255.719 102.937 269.255 97.7396 279.479L97.0833 280.771C96.6771 281.573 96.2656 282.37 95.849 283.167C94.2865 286.219 93.75 288.797 93.6823 292.203L93.6302 293.953C93.599 295.151 93.5729 296.344 93.5521 297.542C93.4115 301.974 92.7552 305.682 90.5417 309.563C88.6094 312.036 86.8333 314.036 83.901 315.271C81.4792 315.927 79.2083 315.943 76.7344 315.62C74.2031 314.891 72.4219 313.828 70.4844 312.089C67.3229 308.75 65.5729 304.12 64.375 299.734C62.9219 290.958 63.625 282.245 66.7292 273.885C68.8333 269.172 71.9687 265.073 74.9687 260.901C75.724 259.844 76.4792 258.786 77.2292 257.724C77.8698 256.813 78.5156 255.906 79.1615 255C80.9479 252.182 82.2031 249.464 82.4375 246.12L82.5625 244.443C82.625 242.583 82.5885 240.74 82.5469 238.88C82.5208 233.979 83.474 229.516 85.6771 225.125C87.2969 222.417 89.4635 220.354 92.0417 218.542C94.0573 217.87 95.2187 217.714 97.3385 217.953ZM-139.234 -319.484L-137.521 -319.474C-134.536 -319.401 -131.922 -319.214 -129.156 -317.979C-127.411 -316.854 -126.818 -316.109 -125.661 -314.302C-124.875 -310.979 -124.771 -308.766 -125.682 -305.5C-128.146 -298.177 -131.651 -292.995 -136.917 -287.422L-139.302 -284.792C-142.505 -281.276 -145.802 -277.844 -149.13 -274.443L-150.375 -273.146C-153.557 -269.927 -156.516 -268.182 -160.76 -266.698C-165.052 -265.745 -169.672 -265.74 -173.99 -266.583C-176.729 -267.516 -178.661 -268.901 -180.693 -270.948C-183.161 -274.021 -184.464 -277.089 -185.182 -280.948C-185.813 -287.323 -185.083 -293.177 -182.828 -299.187C-180.922 -303.073 -178.146 -306.156 -174.589 -308.599C-164.568 -314.354 -150.854 -319.568 -139.234 -319.484Z" fill="#F4D6C9"/>
</g>
<path d="M98.5156 156.771C100.495 156.604 102 156.531 103.875 157.229C105.937 158.25 107.99 159.323 109.698 160.885V162.063L110.74 162.573C112.052 163.24 112.052 163.24 113.104 163.891C114.771 164.87 116.24 165.526 118.167 165.781C119.812 165.734 121.083 165.536 122.646 165.005C124.797 163.625 126.641 162.01 128.531 160.297C130.422 158.672 132.021 157.505 134.417 156.771C136.818 156.417 139.073 156.427 141.479 156.771C144.026 157.813 146.38 159.198 148.229 161.26C149.276 162.359 150.135 163.13 151.484 163.828C153.771 163.797 155.771 163.12 157.922 162.396L159.62 161.88C165.391 160.167 165.391 160.167 170.76 157.542C173.74 156.339 176.573 156.401 179.74 156.771C182.464 157.839 184.193 159.411 186.391 161.333L187.318 162.135L188.229 162.938C190.089 164.495 191.635 165.453 194.01 165.964L196.219 166.182V168.536C193.479 168.76 191.422 168.75 188.859 167.651C186.609 166.193 184.656 164.354 182.687 162.536C181.458 161.385 181.458 161.385 179.74 160.297C176.771 159.938 174.052 160.01 171.24 161.031C169.766 162.042 168.615 163.135 167.375 164.417H166.198V165.594C160.906 168.63 160.906 168.63 156.932 168.682L154.771 168.729C152.453 168.516 151.104 167.979 149.13 166.771C148.031 165.781 148.031 165.781 147.109 164.75C145.214 162.802 143.51 161.156 140.891 160.297C138.677 159.984 136.63 159.974 134.417 160.297C132.5 161.219 131.224 162.323 129.703 163.792C127.016 166.339 124.807 168.052 121.167 168.927C118.828 169.24 116.677 169.172 114.406 168.536C111.823 167.427 110.089 166.146 108.115 164.161C105.193 161.427 102.344 160.161 98.5156 159.12V156.771Z" fill="#E85131"/>
<path d="M98.5156 146.177C100.922 145.979 102.698 146.047 104.917 147.063C107.401 148.406 109.339 150.255 111.411 152.156C112.927 153.495 114.25 154.349 116.172 155.005C118.5 155.307 119.99 155.344 122.172 154.505C125.266 152.911 127.724 150.807 130.214 148.396C131.599 147.25 132.698 146.703 134.417 146.177C137.417 145.781 140.281 145.698 143.115 146.839C144.385 147.547 145.589 148.281 146.776 149.12V150.297L147.771 150.74C149.13 151.474 149.13 151.474 150.568 152.651C152.083 153.833 153.172 154.479 155.016 155.005C156.922 155.219 158.469 155.224 160.302 154.62C162.573 153.599 164.198 152.396 165.906 150.589C167.573 148.849 169.109 147.552 171.323 146.568C174.141 145.755 176.849 145.745 179.74 146.177C183.286 147.422 185.635 149.62 188.161 152.313C189.682 153.729 191.333 154.333 193.276 155.005L195.297 155.703L196.807 156.182L196.219 158.531C193.74 158.453 191.76 158.37 189.536 157.245C187 155.578 184.682 153.698 182.448 151.646C181.38 150.786 180.422 150.224 179.151 149.708C177.156 149.422 175.255 149.469 173.266 149.708C170.495 150.875 168.75 152.406 166.568 154.453C164.464 156.359 162.667 157.599 159.911 158.333C157.391 158.703 155.13 158.594 152.661 157.943C149.443 156.516 146.896 154.177 144.339 151.797C143.203 150.849 142.271 150.245 140.891 149.708C138.708 149.427 136.604 149.458 134.417 149.708C132.495 150.63 131.219 151.745 129.682 153.203C127.167 155.557 125.031 157.427 121.661 158.339C119.187 158.693 116.828 158.552 114.406 157.943C111.781 156.828 109.917 155.453 107.859 153.495C105.781 151.526 104.125 150.151 101.375 149.339L100.13 149.047L97.9271 148.531L98.5156 146.177Z" fill="#E85131"/>
<path d="M98.5156 135.589C100.88 135.391 102.661 135.443 104.839 136.432C107.615 137.938 109.953 139.995 112.333 142.047C113.615 143.073 114.651 143.818 116.172 144.411C118.349 144.63 120.005 144.693 122.089 144.031C124.339 143.01 125.948 141.792 127.646 140C129.677 137.88 131.578 136.438 134.417 135.589C136.651 135.234 138.656 135.214 140.891 135.589C142.974 136.391 144.875 137.375 146.776 138.531V139.708L147.771 140.146C149.365 141.01 150.661 142.104 152.073 143.234C153.672 144.339 154.651 144.438 156.635 144.635C158.953 144.563 160.682 143.958 162.708 142.849C163.932 142 164.885 141.078 165.906 140C167.573 138.26 169.109 136.964 171.323 135.979C174.161 135.156 176.833 135.099 179.74 135.589C183.432 137.094 186.401 139.625 189.276 142.344C191.51 144.234 194.016 144.839 196.807 145.589L195.63 147.943C193.344 147.859 191.615 147.719 189.573 146.656C187.026 144.979 184.693 143.12 182.448 141.057C181.375 140.193 180.432 139.63 179.151 139.12C176.964 138.833 174.859 138.87 172.677 139.12C170.755 140.042 169.469 141.167 167.922 142.615C165.505 144.844 163.443 146.74 160.255 147.708C157.552 148.276 155.443 148.047 152.776 147.391C149.974 146.271 148.01 144.24 145.891 142.151C144.286 140.766 142.854 139.922 140.891 139.12C138.698 138.776 136.615 138.828 134.417 139.12C132.573 140.021 131.312 141.078 129.812 142.464C127.047 144.984 124.495 146.833 120.88 147.943C118.318 148.318 116.344 147.911 113.927 147.099C110.844 145.797 108.667 143.807 106.297 141.484C104.391 139.75 102.62 139.036 100.13 138.458L97.9271 137.943L98.5156 135.589Z" fill="#E85131"/>
<path d="M118.526 339.74L120.292 340.328C121.099 341.828 121.849 343.359 122.536 344.922L123.781 347.656L124.401 349.021C125.698 351.849 127.12 354.615 128.531 357.391L127.943 357.979C126.635 358.031 125.328 358.042 124.021 358.036L122.839 358.031C121.583 358.031 120.328 358.021 119.078 358.016C118.229 358.01 117.38 358.01 116.531 358.005C114.448 358 112.37 357.99 110.286 357.979C110.651 355.526 111.484 353.609 112.604 351.401L113.646 349.339L114.734 347.203L115.833 345.031C116.729 343.266 117.625 341.5 118.526 339.74Z" fill="#E85131"/>
<path d="M98.5156 156.771C100.495 156.604 102 156.531 103.875 157.229C105.937 158.25 107.99 159.323 109.698 160.885V162.063L110.74 162.573C112.052 163.24 112.052 163.24 113.104 163.891C114.771 164.87 116.24 165.526 118.167 165.781C119.812 165.734 121.083 165.536 122.646 165.005C124.797 163.625 126.641 162.01 128.531 160.297C130.417 158.672 132.021 157.49 134.417 156.771C136.146 156.594 136.146 156.594 137.948 156.583L139.75 156.557C141.703 156.797 142.823 157.417 144.422 158.531L143.245 159.12L141.479 158.531H140.302L145.01 161.474C143.245 161.474 143.245 161.474 142.156 160.901C140.125 159.932 138.203 160.068 135.99 160.12C134.318 160.224 134.318 160.224 132.578 161.182C131.599 162.031 130.635 162.896 129.703 163.792C127.016 166.339 124.807 168.052 121.167 168.927C118.828 169.24 116.677 169.172 114.406 168.536C111.823 167.427 110.089 166.146 108.115 164.161C105.193 161.427 102.344 160.161 98.5156 159.12V156.771Z" fill="#E85131"/>
<mask id="mask1_1_2" style="mask-type:luminance" maskUnits="userSpaceOnUse" x="21" y="142" width="302" height="282">
<path d="M21.6042 142.667H322.667V423.484H21.6042V142.667Z" fill="white"/>
</mask>
<g mask="url(#mask1_1_2)">
<path d="M308.047 645.672C309.333 645.781 309.333 645.781 310.99 646.26C312.646 647.766 312.646 647.766 313.932 649.203C315.443 648.557 316.307 648.005 317.427 646.776L318.641 645.672C320.26 645.526 320.26 645.526 321.583 645.672C321.344 647.083 321.089 647.911 320.167 649.026L319.193 649.938L318.219 650.865L317.464 651.557C318.156 653.25 318.849 654.109 320.188 655.417L321.583 656.849V658.615C320.297 658.833 320.297 658.833 318.641 658.615C317.469 657.531 316.646 656.385 315.698 655.083C314.625 655.167 314.625 655.167 313.344 655.672L311.875 657.182L310.401 658.615H308.047C308.156 657.328 308.156 657.328 308.635 655.672L310.182 654.203L311.578 652.729C311.734 651.141 311.734 651.141 310.99 649.792L308.635 648.615C308.193 647.068 308.193 647.068 308.047 645.672ZM-564.812 143.823H-562.458V145H-561.281C-560.328 146.177 -560.328 146.177 -559.516 147.354C-558.443 147.271 -558.443 147.271 -557.161 146.766L-555.693 145.224L-554.219 143.823C-552.859 143.938 -552.859 143.938 -551.865 144.411C-552.646 146.755 -553.635 148.005 -555.396 149.708L-555.984 151.474L-554.219 152.063C-552.932 153.13 -552.932 153.13 -551.865 154.417V156.771C-553.151 156.99 -553.151 156.99 -554.807 156.771C-555.979 155.688 -556.802 154.536 -557.75 153.24C-559.26 153.885 -560.146 154.453 -561.281 155.667L-562.458 156.771H-564.812C-564.703 155.479 -564.703 155.479 -564.224 153.828C-562.719 152.172 -562.719 152.172 -561.281 150.885C-561.927 149.375 -562.5 148.495 -563.708 147.354L-564.812 146.177V143.823Z" fill="#C19572"/>
</g>
<mask id="mask2_1_2" style="mask-type:luminance" maskUnits="userSpaceOnUse" x="21" y="63" width="161" height="361">
<path d="M21.6042 63.4844H181.333V423.484H21.6042V63.4844Z" fill="white"/>
</mask>
<g mask="url(#mask2_1_2)">
<path d="M167.964 -283.891H169.729V-273.302L180.328 -272.714V-271.536L170.318 -270.948L169.141 -267.417H168.552L167.964 -270.948H156.193L155.974 -267.49C155.849 -265.547 155.849 -265.547 155.604 -263.891L154.427 -262.714L153.839 -263.302C153.703 -264.682 153.599 -266.068 153.51 -267.453L153.359 -269.755L153.25 -271.536H154.427L155.016 -273.302L156.078 -273.292C157.661 -273.281 159.245 -273.271 160.828 -273.266L162.5 -273.25L164.099 -273.245L165.573 -273.234C166.828 -273.224 166.828 -273.224 167.964 -273.891V-283.891ZM-357.047 752.161H-354.693C-354.359 753.224 -354.359 753.224 -354.104 754.51L-354.693 756.276C-354.74 757.448 -354.755 758.625 -354.75 759.797L-354.745 761.87L-354.729 764.036L-354.719 766.224C-354.714 768.005 -354.703 769.792 -354.693 771.573L-357.047 772.75C-358.224 771.573 -358.224 771.573 -358.583 770.5C-359.016 768.068 -358.922 765.615 -358.922 763.156L-358.943 761.505C-358.953 758.349 -358.714 755.719 -357.635 752.75L-357.047 752.161ZM-374.703 736.276C-373.12 736.495 -373.12 736.495 -371.76 736.865L-372.349 739.802H-374.703C-374.427 742.344 -374.078 744.786 -373.49 747.271C-373.052 749.135 -372.813 750.818 -372.938 752.75C-374.042 753.115 -374.042 753.115 -375.292 753.339C-376.469 752.161 -376.469 752.161 -376.88 750.927C-377.281 749.307 -377.667 747.682 -378.052 746.057L-378.474 744.344L-378.865 742.698L-379.229 741.188C-379.422 739.75 -379.276 738.818 -378.823 737.453H-376.469L-374.703 736.276Z" fill="#B8B2A7"/>
</g>
<path d="M179.74 157.943V159.12L181.583 158.943L183.859 159.12C185.62 160.365 185.62 160.365 187.318 161.99C188.958 163.49 190.458 164.818 192.552 165.656C194.125 166.01 194.125 166.01 196.219 166.182V168.536C193.479 168.76 191.422 168.75 188.859 167.651C186.609 166.193 184.656 164.354 182.687 162.536C181.458 161.385 181.458 161.385 179.74 160.297C177.719 160.156 177.719 160.156 175.505 160.224L173.24 160.255L171.495 160.297V159.12L170.318 158.531C171.339 158.432 172.354 158.333 173.375 158.24L175.089 158.073C176.651 157.958 178.177 157.922 179.74 157.943Z" fill="#E85131"/>
<mask id="mask3_1_2" style="mask-type:luminance" maskUnits="userSpaceOnUse" x="21" y="63" width="123" height="361">
<path d="M21.6042 63.4844H144V423.484H21.6042V63.4844Z" fill="white"/>
</mask>
<g mask="url(#mask3_1_2)">
<path d="M125.589 -268.005C126.49 -266.552 126.771 -265.609 126.88 -263.88L126.839 -261.974L126.807 -260.057L126.766 -258.594C129.182 -258.495 131.599 -258.396 134.01 -258.297L136.094 -258.214L138.089 -258.135L139.927 -258.057C141.031 -258.021 142.141 -258.005 143.245 -258.005L142.656 -256.828C140.594 -256.245 138.724 -256.198 136.594 -256.313L134.854 -256.396L133.057 -256.5L131.224 -256.589C129.74 -256.667 128.25 -256.745 126.766 -256.828L126.807 -255.734L126.839 -254.292L126.88 -252.865C126.766 -251.531 126.766 -251.531 125.589 -249.771C125 -251.531 125 -251.531 125 -256.828H112.641V-257.417L120.88 -258.005V-258.594H125L124.979 -260.203C124.974 -260.901 124.969 -261.594 124.964 -262.307L124.943 -264.396C125 -266.24 125 -266.24 125.589 -268.005ZM-299.365 812.172C-297.781 812.391 -297.781 812.391 -296.422 812.755C-296.578 813.828 -296.578 813.828 -297.01 815.109C-300.344 818.13 -305.167 820.661 -309.37 822.172C-311.052 821.969 -311.052 821.969 -312.312 821.583C-312.167 820.5 -312.167 820.5 -311.724 819.229C-310.714 818.443 -310.714 818.443 -309.411 817.755L-307.995 816.99L-306.5 816.214C-305.536 815.698 -304.568 815.182 -303.599 814.667L-302.297 813.984C-301.005 813.297 -301.005 813.297 -299.365 812.172Z" fill="#B8B2A7"/>
</g>
<path d="M166.786 160.885C164.417 163.052 162.198 165.078 159.135 166.182C157.349 166.375 155.625 166.443 153.839 166.182L152.073 165.005V163.828C154.083 163.219 156.094 162.62 158.109 162.026L159.833 161.5L161.5 161.016L163.031 160.557C164.51 160.286 165.38 160.406 166.786 160.885Z" fill="#FFB027"/>
<path d="M140.891 135.589C142.974 136.385 144.87 137.375 146.776 138.531L145.599 139.708C144.005 139.536 142.797 139.193 141.37 138.458C139.219 137.786 137.479 137.932 135.26 138.208C133.255 138.661 131.901 139.625 130.297 140.885C129.521 141.297 128.74 141.688 127.943 142.063C128.849 140.026 129.964 138.401 131.474 136.766C134.578 135.26 137.505 135.125 140.891 135.589Z" fill="#E85131"/>
<path d="M121.469 344.448C123.344 346.719 124.651 349.286 126.031 351.875L126.786 353.255L127.495 354.583L128.141 355.786L128.531 356.802L127.943 357.979H110.286C110.812 355.344 111.021 354.583 112.641 352.682C112.125 355.479 112.125 355.479 111.464 356.802H126.766C125.026 353.396 125.026 353.396 123.276 349.99L122.625 348.698L121.953 347.385C121.469 346.214 121.469 346.214 121.469 344.448Z" fill="#E85131"/>
<mask id="mask4_1_2" style="mask-type:luminance" maskUnits="userSpaceOnUse" x="21" y="63" width="301" height="361">
<path d="M21.6042 63.4844H321.333V423.484H21.6042V63.4844Z" fill="white"/>
</mask>
<g mask="url(#mask4_1_2)">
<path d="M319.818 819.818L320.995 820.406V832.172H318.641C317.672 830.229 318.109 828.115 318.24 825.995L318.302 824.594C318.37 823.391 318.5 822.193 318.641 820.995L319.818 819.818ZM-246.396 -46.2083L-242.271 -45.6198C-242.141 -44.7708 -242.021 -43.9271 -241.906 -43.0781L-241.698 -41.6511L-241.682 -40.3229L-242.859 -38.5573C-243.849 -38.7344 -244.828 -38.9323 -245.807 -39.1458L-246.396 -39.7344C-246.432 -40.8229 -246.443 -41.9167 -246.432 -43.0052L-246.411 -44.8125L-246.396 -46.2083Z" fill="#CFC3B9"/>
</g>
<path d="M163.844 360.333C167.719 361.318 171.469 362.458 175.203 363.88C176.672 364.406 178.146 364.854 179.646 365.271C181.234 365.719 182.823 366.177 184.406 366.641L186.297 367.193L188.234 367.76L190.219 368.339L195.042 369.745V370.333C190.286 370.057 185.922 368.74 181.401 367.349C180.115 366.953 178.823 366.568 177.536 366.182C172.797 364.75 168.286 363.135 163.844 360.922V360.333Z" fill="#EE873D"/>
<path d="M179.74 156.771C181.125 157.219 182.047 157.719 183.271 158.531V159.12H179.74V157.943L171.495 159.12V160.885C169.729 161.474 169.729 161.474 168.443 161.219L167.375 160.885L167.964 159.12C171.786 156.599 175.214 156.219 179.74 156.771Z" fill="#E85131"/>
<mask id="mask5_1_2" style="mask-type:luminance" maskUnits="userSpaceOnUse" x="21" y="63" width="269" height="326">
<path d="M21.6042 63.4844H290V389H21.6042V63.4844Z" fill="white"/>
</mask>
<g mask="url(#mask5_1_2)">
<path d="M282.311 701.617C283.206 701.598 284.101 701.598 284.995 701.617L285.443 702.681C286.496 702.93 286.496 702.93 287.708 703.015L288.955 703.138L289.917 703.213V703.745L288.693 703.726L287.094 703.712L285.502 703.693C284.085 703.665 284.085 703.665 282.758 704.277L282.311 720.77H281.864C281.852 718.128 281.844 715.486 281.84 712.844C281.836 711.944 281.832 711.045 281.828 710.145C281.824 708.855 281.82 707.565 281.82 706.274L281.812 705.05C281.812 704.084 281.836 703.119 281.864 702.149L282.311 701.617ZM-212.104 -42.6143C-211.011 -42.4825 -211.011 -42.4825 -209.867 -42.0822L-208.972 -40.4857C-209.138 -39.0587 -209.138 -39.0587 -209.419 -37.8248L-211.657 -37.2927C-212.357 -38.4936 -212.357 -38.4936 -212.999 -39.9535C-212.888 -41.1497 -212.888 -41.1497 -212.551 -42.0822L-212.104 -42.6143Z" fill="#CFC3B9"/>
</g>
<path d="M142.656 147.354C145.453 148.458 145.453 148.458 146.776 149.12V150.297L147.807 150.703C149.464 151.667 150.354 152.88 151.484 154.417L147.953 152.651L150.307 156.182C148.401 155.328 147 154.266 145.453 152.87L144.193 151.745L143.245 150.885L144.422 150.297V149.12C143.563 148.161 143.562 148.161 142.656 147.354Z" fill="#E85131"/>
<mask id="mask6_1_2" style="mask-type:luminance" maskUnits="userSpaceOnUse" x="21" y="63" width="107" height="85">
<path d="M21.6042 63.4844H128V148H21.6042V63.4844Z" fill="white"/>
</mask>
<g mask="url(#mask6_1_2)">
<path d="M126.177 142.646H127.354L127.943 144.411C121.125 147.474 121.125 147.474 117.495 147.172C115.583 146.766 115.583 146.766 113.818 146.177V145L115.474 145.083C119.547 145.297 119.547 145.297 123.479 144.479C124.672 143.776 124.672 143.776 126.177 142.646ZM-784.354 -246.24C-782.771 -245.724 -782.771 -245.724 -781.412 -245.063C-781.339 -243.667 -781.339 -243.667 -781.412 -242.12L-782.589 -240.943C-784.094 -241.125 -784.094 -241.125 -785.531 -241.531L-786.12 -242.12C-786.266 -243.552 -786.266 -243.552 -786.12 -245.063L-784.354 -246.24ZM-761.401 -258.005C-759.818 -257.49 -759.818 -257.49 -758.458 -256.828C-758.385 -255.432 -758.385 -255.432 -758.458 -253.885L-759.635 -252.708C-761.141 -252.896 -761.141 -252.896 -762.578 -253.297L-763.167 -253.885C-763.313 -255.323 -763.313 -255.323 -763.167 -256.828L-761.401 -258.005ZM-772.583 -258.005L-769.641 -256.24L-770.229 -253.297C-771.589 -252.896 -771.589 -252.896 -773.172 -252.708C-774.276 -253.406 -774.276 -253.406 -774.938 -254.474C-774.865 -255.688 -774.865 -255.688 -774.349 -256.828L-772.583 -258.005Z" fill="#E85131"/>
</g>
<path d="M129.708 160.297C130.083 161.38 130.083 161.38 130.297 162.651C129.068 164.13 127.849 165.26 126.25 166.328C124.49 166.948 122.729 167.146 120.88 167.359L121.469 166.182C122.448 165.63 123.432 165.083 124.417 164.547C126.365 163.354 128.026 161.833 129.708 160.297Z" fill="#E85131"/>
<path d="M98.5156 135.589C100.49 135.422 102.01 135.37 103.891 136.031C105.781 136.922 107.12 137.693 108.521 139.266L109.109 140.297C107.734 139.615 106.37 138.901 105.026 138.161C103.24 137.359 102.203 137.182 100.281 137.354L103.812 138.531L102.635 139.12C101.49 138.917 101.49 138.917 100.208 138.568L98.9115 138.219L97.9271 137.943L98.5156 135.589Z" fill="#E85131"/>
<mask id="mask7_1_2" style="mask-type:luminance" maskUnits="userSpaceOnUse" x="21" y="63" width="247" height="331">
<path d="M21.6042 63.4844H268V394H21.6042V63.4844Z" fill="white"/>
</mask>
<g mask="url(#mask7_1_2)">
<path d="M-7.55734 -218.372C-6.43483 -218.171 -6.43483 -218.171 -5.61882 -217.564C-5.08542 -216.55 -5.08542 -216.55 -4.91426 -214.929C-5.08542 -213.308 -5.08542 -213.308 -5.61882 -212.299C-6.43483 -211.687 -6.43483 -211.687 -7.55734 -211.486C-8.68384 -211.687 -8.68384 -211.687 -9.49985 -212.299C-10.0332 -213.308 -10.0332 -213.308 -10.2004 -214.929C-10.0332 -216.55 -10.0332 -216.55 -9.49985 -217.564C-8.68384 -218.171 -8.68384 -218.171 -7.55734 -218.372ZM-8.68384 -217.09C-9.27296 -216.172 -9.27296 -216.172 -9.58344 -214.929C-9.00626 -213.447 -9.00626 -213.447 -8.23404 -212.227L-5.98503 -212.768C-5.71037 -213.772 -5.71037 -213.772 -5.53523 -214.929L-5.98503 -216.55L-8.68384 -217.09ZM266.615 736.81L267.514 737.885C267.574 739.248 267.574 739.248 267.502 740.946L267.431 742.782L267.343 744.709L267.268 746.646C267.204 748.228 267.136 749.811 267.065 751.389H266.615C265.946 741.725 265.946 741.725 266.165 737.35L266.615 736.81Z" fill="#CFC3B9"/>
</g>
<path d="M168.552 137.531H169.729C169.349 138.318 168.958 139.104 168.552 139.885L167.781 141.427C166.786 142.823 166.786 142.823 165.318 143.526L163.844 144L162.078 145.177C160.5 145.25 160.5 145.25 159.135 145.177C160.307 144.297 161.484 143.422 162.667 142.552C164.417 141.266 166.062 140.026 167.599 138.484L168.552 137.531Z" fill="#E85131"/>
<mask id="mask8_1_2" style="mask-type:luminance" maskUnits="userSpaceOnUse" x="21" y="63" width="87" height="99">
<path d="M21.6042 63.4844H108V161.333H21.6042V63.4844Z" fill="white"/>
</mask>
<g mask="url(#mask8_1_2)">
<path d="M98.5156 156.771C100.557 156.599 102.031 156.531 103.953 157.292C105.104 157.875 106.229 158.474 107.344 159.12L106.755 160.297L105.135 159.417C103.219 158.37 103.219 158.37 100.87 158.531L104.99 160.297L103.812 160.885C102.536 160.557 102.536 160.557 101.089 160.042L99.6302 159.526L98.5156 159.12V156.771ZM-316.432 -234.474L-315.255 -233.885C-316.922 -230.724 -316.922 -230.724 -317.609 -229.766L-319.375 -229.177L-319.964 -227.411H-321.141V-226.234C-323.682 -223.495 -323.682 -223.495 -325.26 -222.703C-324.359 -225.677 -322.536 -227.635 -320.516 -229.911L-319.526 -231.047C-317.234 -233.672 -317.234 -233.672 -316.432 -234.474Z" fill="#E85131"/>
</g>
<path d="M113.229 317.38H113.818L114.12 318.5L114.552 319.958L114.969 321.406C115.484 322.745 115.484 322.745 116.693 323.448C118.052 323.979 118.052 323.979 120.031 323.708C122.115 323.38 122.115 323.38 123.823 322.089L122.646 325.031C120.667 325.172 118.74 325.229 116.76 325.031C114.958 323.927 114.958 323.927 113.818 322.677C112.948 320.938 113.193 319.302 113.229 317.38Z" fill="#EE873D"/>
<path d="M112.641 265.021C112.641 266.745 112.516 268.073 112.052 269.729C111.094 271.047 111.094 271.047 109.953 272.266L108.812 273.51L107.932 274.432L107.344 273.26C108.052 271.943 108.812 270.656 109.625 269.396L110.297 268.323C111.937 265.724 111.937 265.724 112.641 265.021Z" fill="#EE873D"/>
<path d="M183.859 148.531L187.979 152.063C187.391 153.24 187.391 153.24 186.802 153.828L187.979 155.594C186.682 155.109 185.76 154.563 184.813 153.552C184.089 152.672 183.38 151.781 182.682 150.885H184.448L183.271 149.12L183.859 148.531Z" fill="#E85131"/>
<path d="M99.6927 157.943C104.203 158.057 104.203 158.057 106.125 159.229C106.958 159.938 107.745 160.703 108.521 161.474L106.755 162.063C105.568 161.297 104.385 160.51 103.224 159.708C101.323 158.979 101.323 158.979 99.6927 158.531V157.943Z" fill="#E85131"/>
<mask id="mask9_1_2" style="mask-type:luminance" maskUnits="userSpaceOnUse" x="21" y="217" width="261" height="182">
<path d="M21.6042 217.333H282V399H21.6042V217.333Z" fill="white"/>
</mask>
<g mask="url(#mask9_1_2)">
<path d="M-412.716 544.486L-412.009 545.027C-415.584 546.634 -415.584 546.634 -417.509 546.418L-418.466 546.065C-417.434 545.289 -416.381 544.802 -415.238 544.38L-414.431 544.077C-413.623 543.99 -413.623 543.99 -412.716 544.486ZM276.957 218.398H281.8L280.186 220.473C279.153 220.734 279.153 220.734 278.168 220.473L276.957 218.398Z" fill="#F4D6C9"/>
</g>
<mask id="mask10_1_2" style="mask-type:luminance" maskUnits="userSpaceOnUse" x="21" y="63" width="102" height="361">
<path d="M21.6042 63.4844H122.667V423.484H21.6042V63.4844Z" fill="white"/>
</mask>
<g mask="url(#mask10_1_2)">
<path d="M121.469 -272.714L122.057 -271.536C118.776 -270.906 115.937 -271.052 112.641 -271.536V-272.125C115.625 -272.542 118.458 -272.776 121.469 -272.714ZM-316.432 813.932L-315.844 818.641L-317.609 818.052C-318.604 816.25 -318.604 816.25 -319.375 814.521C-318.198 813.932 -318.198 813.932 -316.432 813.932ZM-347.63 742.156H-345.276L-344.688 745.099H-345.276L-345.865 748.042L-347.042 746.865C-347.375 745.302 -347.474 743.75 -347.63 742.156Z" fill="#B8B2A7"/>
</g>
<path d="M150.896 167.948L158.547 168.536V169.125H153.839V170.302L150.896 169.714V167.948Z" fill="#FFB027"/>
<mask id="mask11_1_2" style="mask-type:luminance" maskUnits="userSpaceOnUse" x="21" y="63" width="95" height="361">
<path d="M21.6042 63.4844H116V423.484H21.6042V63.4844Z" fill="white"/>
</mask>
<g mask="url(#mask11_1_2)">
<path d="M114.995 -243.297L110.875 -241.531L110.286 -242.12C109.297 -242.255 108.302 -242.365 107.307 -242.453L105.667 -242.599L104.401 -242.708V-243.297C105.724 -243.411 107.047 -243.521 108.37 -243.625L110.609 -243.812C112.281 -243.875 113.432 -243.828 114.995 -243.297ZM-322.906 797.464C-321.474 797.536 -321.474 797.536 -319.964 798.047C-319.193 799.557 -319.193 799.557 -318.786 800.99L-321.141 800.401V798.047H-322.318L-322.906 800.401C-323.24 799.266 -323.24 799.266 -323.495 798.047L-322.906 797.464Z" fill="#B8B2A7"/>
</g>
<path d="M99.1042 146.766H104.401L104.99 149.12L98.5156 147.943L99.1042 146.766Z" fill="#E85131"/>
<mask id="mask12_1_2" style="mask-type:luminance" maskUnits="userSpaceOnUse" x="21" y="389" width="102" height="35">
<path d="M21.6042 389.333H122.667V423.484H21.6042V389.333Z" fill="white"/>
</mask>
<g mask="url(#mask12_1_2)">
<path d="M119.115 535.068L122.057 535.656L121.469 538.005L119.115 537.417V535.068ZM-209.901 389.75L-207.547 390.333L-208.135 392.688H-210.49L-209.901 389.75Z" fill="#C19572"/>
</g>
<path d="M118.526 339.74L120.292 340.328L120.88 343.859L119.115 342.682L117.349 343.271L118.526 339.74Z" fill="#E85131"/>
<path d="M145.599 160.885C146.604 161.844 147.589 162.823 148.542 163.828V165.005C147.437 164.563 147.437 164.563 146.187 163.828C145.453 162.578 145.453 162.578 145.01 161.474L145.599 160.885Z" fill="#E85131"/>
<path d="M170.318 158.531L177.974 159.12V159.708L171.495 160.297V159.12L170.318 158.531ZM110.286 140.885C111.771 142.276 112.573 143.042 113.229 145C112.437 144.823 111.656 144.625 110.875 144.411L110.286 143.823C110.26 142.844 110.26 141.865 110.286 140.885Z" fill="#E85131"/>
<path d="M185.625 141.474C187.052 142.156 188.427 142.943 189.745 143.823V145C188.313 144.755 187.495 144.5 186.359 143.568L185.625 142.646V141.474Z" fill="#E85131"/>
<mask id="mask13_1_2" style="mask-type:luminance" maskUnits="userSpaceOnUse" x="21" y="63" width="90" height="80">
<path d="M21.6042 63.4844H110.667V142.667H21.6042V63.4844Z" fill="white"/>
</mask>
<g mask="url(#mask13_1_2)">
<path d="M107.344 139.708L110.286 140.297L109.698 142.646L107.344 141.474V139.708ZM-343.51 -147.99L-341.156 -147.401L-342.333 -145.047L-344.099 -145.635L-343.51 -147.99Z" fill="#E85131"/>
</g>
<path d="M150.307 165.594C151.557 165.849 151.557 165.849 152.661 166.182V167.948C151.229 167.724 151.229 167.724 149.719 167.359L149.13 166.182L150.307 165.594Z" fill="#E85131"/>
<path d="M130.297 149.12H132.063V150.297C130.958 151.255 130.958 151.255 129.708 152.063H128.531C129.635 149.781 129.635 149.781 130.297 149.12Z" fill="#E85131"/>
<path d="M376.323 207.188L379.854 209.542L378.677 210.13C377.427 209.875 377.427 209.875 376.323 209.542V207.188Z" fill="#FFB027"/>
<path d="M110.286 164.417C111.474 164.771 112.651 165.167 113.818 165.594L114.406 166.771C111.609 166.255 111.609 166.255 110.286 165.594V164.417Z" fill="#E85131"/>
<path d="M147.953 152.651C149.057 153.13 149.057 153.13 150.307 153.828L151.484 155.594C150.38 155.443 150.38 155.443 149.13 155.005C148.396 153.792 148.396 153.792 147.953 152.651Z" fill="#E85131"/>
<path d="M325.115 173.24H328.057L328.646 175.594C327.651 175.234 326.672 174.844 325.703 174.417L325.115 173.24Z" fill="#F4D6C9"/>
<path d="M105.578 149.12C106.719 149.599 106.719 149.599 107.932 150.297L108.521 152.063C107.38 151.583 107.38 151.583 106.167 150.885L105.578 149.12Z" fill="#E85131"/>
<mask id="mask14_1_2" style="mask-type:luminance" maskUnits="userSpaceOnUse" x="124" y="63" width="198" height="361">
<path d="M124 63.4844H321.333V423.484H124V63.4844Z" fill="white"/>
</mask>
<g mask="url(#mask14_1_2)">
<path d="M125 -253.297L126.766 -252.708L126.177 -249.771L125 -251.531V-253.297ZM319.818 819.818L320.995 820.406V821.583L318.641 822.172L319.818 819.818Z" fill="#B8B2A7"/>
</g>
<path d="M352.781 194.068L355.135 195.245L353.37 195.833L352.781 194.068Z" fill="#FFB027"/>
</svg>
