<svg xmlns="http://www.w3.org/2000/svg" xmlns:xlink="http://www.w3.org/1999/xlink" width="500" zoomAndPan="magnify" viewBox="0 0 375 374.999991" height="500" preserveAspectRatio="xMidYMid meet" version="1.0"><defs><clipPath id="a33bf4a4f2"><path d="M 38 144.117188 L 343 144.117188 L 343 228 L 38 228 Z M 38 144.117188 " clip-rule="nonzero"/></clipPath></defs><g clip-path="url(#a33bf4a4f2)"><path fill="#000000" d="M 42.386719 146.640625 C 42.226562 146.859375 42.203125 147.097656 42.308594 147.347656 C 41.695312 148.050781 40.285156 147.503906 40.042969 148.800781 C 37.976562 150.859375 38.761719 152.964844 39.988281 155.042969 C 43.445312 160.867188 47.777344 166.003906 52.425781 170.882812 C 69.09375 188.335938 88.640625 201.503906 110.722656 211.335938 C 149.265625 228.519531 189.050781 230.894531 229.835938 222.503906 C 248.742188 218.613281 266.617188 211.496094 284.160156 203.550781 C 294.472656 198.875 304.46875 193.601562 314.597656 188.5625 C 314.882812 188.222656 315.15625 187.882812 315.441406 187.539062 C 315.941406 187.515625 316.496094 187.347656 316.90625 187.527344 C 316.90625 187.527344 316.90625 187.527344 316.917969 187.539062 C 317.238281 187.6875 317.019531 188.140625 316.65625 188.324219 C 314.691406 192.304688 311.949219 195.738281 309.027344 199.023438 C 307.027344 201.273438 305.253906 203.605469 304.207031 206.449219 C 299.863281 211.257812 299.714844 216.410156 303.582031 220.886719 C 315.644531 216.238281 323 206.675781 329.6875 196.339844 C 332.175781 192.496094 334.917969 188.835938 337.601562 185.128906 C 344.035156 176.261719 342.601562 177.183594 339.042969 169.007812 C 338.25 167.175781 337.042969 165.5625 335.679688 164.082031 C 335.179688 163.539062 334.667969 163.082031 333.882812 163.082031 C 332.859375 161.046875 330.949219 161.023438 329.085938 161.09375 C 323.546875 161.296875 318.019531 161.570312 312.484375 161.820312 C 311.324219 161.183594 310.117188 161.378906 308.914062 161.628906 C 307.777344 160.945312 306.558594 161.160156 305.355469 161.320312 C 304.628906 160.707031 303.71875 160.933594 302.886719 160.820312 C 291.640625 159.238281 280.738281 156.421875 270.347656 151.746094 C 269.5625 151.394531 268.753906 151.109375 267.957031 150.792969 C 267.015625 150.40625 265.945312 149.960938 265.195312 150.847656 C 264.628906 151.519531 264.785156 152.734375 265.285156 153.292969 C 267.492188 155.773438 267.820312 159.195312 269.742188 161.773438 C 270.597656 162.921875 271.847656 163.628906 273.132812 164.320312 C 283.011719 169.722656 293.574219 173.226562 304.523438 175.65625 C 305.503906 175.875 306.539062 175.941406 307.433594 176.351562 C 308.480469 176.828125 308.1875 177.714844 307.664062 178.5 C 306.527344 178.363281 305.71875 178.820312 305.195312 179.808594 C 304.136719 179.886719 303.113281 180.046875 302.582031 181.148438 C 302.320312 181.023438 302.148438 181.105469 302.070312 181.378906 C 301.058594 181.421875 300.125 181.628906 299.578125 182.617188 C 298.898438 182.796875 298.179688 182.890625 297.542969 183.183594 C 290.550781 186.390625 283.613281 189.710938 276.589844 192.839844 C 270.210938 195.679688 263.75 198.320312 257.328125 201.035156 C 255.542969 201.546875 253.746094 201.992188 251.996094 202.570312 C 234.917969 208.109375 217.429688 211.507812 199.476562 212.28125 C 193.0625 212.554688 186.652344 212.632812 180.238281 212.792969 C 179.019531 212.109375 177.769531 212.382812 176.507812 212.632812 C 175.359375 211.953125 174.167969 212.191406 172.960938 212.417969 C 171.914062 211.691406 170.777344 211.996094 169.652344 212.109375 C 169.003906 211.566406 168.289062 211.597656 167.550781 211.859375 C 167.300781 211.679688 167.046875 211.667969 166.789062 211.835938 C 166.058594 211.246094 165.160156 211.453125 164.34375 211.316406 C 160.292969 210.621094 156.144531 210.65625 152.175781 209.460938 C 151.824219 209.792969 150.652344 209.960938 152.085938 210.5625 C 153.039062 210.972656 153.097656 211.257812 152.835938 211.496094 C 152.609375 211.703125 152.140625 211.871094 151.800781 212.042969 C 139.089844 209.449219 126.84375 205.355469 114.859375 200.457031 C 113.792969 199.898438 112.710938 199.34375 111.640625 198.785156 C 105.253906 195.453125 98.851562 192.121094 92.460938 188.800781 C 92.335938 188.527344 92.152344 188.347656 91.925781 188.246094 C 91.765625 188.175781 91.597656 188.140625 91.402344 188.140625 C 91.199219 187.699219 90.847656 187.496094 90.367188 187.503906 C 90.175781 187.050781 89.824219 186.847656 89.335938 186.867188 C 89.152344 186.402344 88.800781 186.199219 88.300781 186.222656 C 88.117188 185.753906 87.777344 185.527344 87.277344 185.5625 C 87.105469 185.082031 86.765625 184.867188 86.265625 184.902344 L 86.253906 184.890625 C 86.09375 184.425781 85.753906 184.195312 85.261719 184.230469 L 85.242188 184.21875 C 84.933594 183.980469 84.605469 183.753906 84.261719 183.550781 L 84.230469 183.527344 C 84.070312 183.058594 83.75 182.832031 83.25 182.855469 L 83.21875 182.832031 C 83.058594 182.367188 82.738281 182.140625 82.238281 182.160156 L 82.203125 182.140625 C 82.203125 182.140625 82.195312 182.128906 82.195312 182.128906 C 82.195312 182.128906 82.203125 182.140625 82.203125 182.140625 C 82.058594 181.660156 81.726562 181.433594 81.226562 181.457031 L 81.203125 181.445312 C 81.058594 180.96875 80.726562 180.742188 80.226562 180.761719 L 80.214844 180.753906 C 80.054688 180.273438 79.726562 180.035156 79.226562 180.046875 C 76.316406 177.695312 73.414062 175.339844 70.503906 172.984375 C 68.605469 172.234375 67.300781 170.699219 65.832031 169.394531 C 65.890625 169.164062 65.992188 168.984375 66.117188 168.824219 C 66.308594 168.574219 66.558594 168.402344 66.902344 168.300781 C 65.898438 167.199219 64.980469 166.015625 63.535156 165.4375 C 63.082031 165.300781 62.660156 165.105469 62.332031 164.742188 C 62.726562 164.96875 63.125 165.210938 63.535156 165.4375 C 63.285156 165.015625 63 164.652344 62.464844 164.730469 C 62.332031 163.992188 61.863281 163.550781 61.183594 163.277344 C 61.101562 162.796875 60.851562 162.503906 60.339844 162.480469 C 60.136719 162.027344 59.863281 161.671875 59.328125 161.617188 C 59.261719 161.378906 59.136719 161.195312 58.886719 161.09375 C 58.101562 159.84375 57.101562 158.820312 55.847656 158.035156 C 55.246094 157.183594 54.667969 156.304688 53.675781 155.839844 C 53.496094 155.15625 52.9375 154.792969 52.425781 154.394531 C 50.0625 151.03125 47.09375 148.121094 45.285156 144.128906 C 44.296875 145.3125 42.636719 145.105469 42.386719 146.640625 Z M 302.214844 182.21875 C 302.207031 182.21875 302.207031 182.21875 302.195312 182.21875 C 302.195312 182.230469 302.207031 182.230469 302.207031 182.230469 C 302.195312 182.230469 302.183594 182.21875 302.183594 182.21875 C 302.183594 182.21875 302.195312 182.21875 302.195312 182.21875 C 302.195312 182.207031 302.195312 182.195312 302.183594 182.183594 C 302.207031 182.195312 302.207031 182.207031 302.214844 182.21875 Z M 80.042969 183.527344 C 80.113281 183.59375 80.179688 183.664062 80.25 183.730469 C 80.226562 183.71875 80.203125 183.707031 80.179688 183.695312 C 80.113281 183.652344 80.042969 183.605469 79.976562 183.550781 C 79.988281 183.550781 80.011719 183.539062 80.042969 183.527344 Z M 92.394531 188.800781 C 92.394531 188.8125 92.382812 188.8125 92.382812 188.824219 C 92.359375 188.847656 92.347656 188.882812 92.324219 188.90625 L 92.246094 188.984375 L 92.382812 188.8125 C 92.382812 188.800781 92.371094 188.800781 92.371094 188.789062 C 92.371094 188.800781 92.382812 188.800781 92.394531 188.800781 Z M 79.625 183.683594 C 79.738281 183.640625 79.851562 183.59375 79.953125 183.558594 C 80.023438 183.605469 80.089844 183.652344 80.160156 183.695312 C 80 183.617188 79.816406 183.605469 79.625 183.683594 Z M 80.601562 184.027344 C 80.679688 184.082031 80.761719 184.140625 80.828125 184.195312 C 80.828125 184.207031 80.839844 184.207031 80.839844 184.21875 C 80.761719 184.152344 80.679688 184.082031 80.601562 184.027344 Z M 44.558594 154.113281 C 44.546875 154.113281 44.535156 154.101562 44.523438 154.101562 C 44.523438 154.101562 44.511719 154.089844 44.511719 154.089844 C 44.511719 154.078125 44.5 154.066406 44.5 154.054688 C 44.523438 154.066406 44.535156 154.089844 44.558594 154.113281 Z M 45.617188 155.601562 C 45.617188 155.625 45.617188 155.648438 45.640625 155.65625 C 45.640625 155.636719 45.617188 155.613281 45.617188 155.601562 Z M 61.589844 164.664062 C 61.511719 164.699219 61.433594 164.742188 61.351562 164.8125 C 61.339844 164.753906 61.328125 164.699219 61.316406 164.640625 C 61.410156 164.652344 61.5 164.652344 61.589844 164.664062 Z M 59.554688 162.152344 C 59.429688 162.058594 59.339844 161.921875 59.28125 161.753906 C 59.28125 161.753906 59.28125 161.753906 59.292969 161.753906 C 59.363281 161.910156 59.441406 162.046875 59.554688 162.152344 Z M 59.554688 162.152344 " fill-opacity="1" fill-rule="nonzero"/></g><path fill="#000000" d="M 84.195312 183.527344 C 84.523438 183.753906 84.855469 183.96875 85.171875 184.195312 C 85.011719 183.71875 84.683594 183.503906 84.195312 183.527344 Z M 84.195312 183.527344 " fill-opacity="1" fill-rule="nonzero"/></svg>